HIERARCHY
ROOT Hips
{
	OFFSET 0.000000 83.214638 0.000000
	CHANNELS 6 Xposition Yposition Zposition Xrotation Yrotation Zrotation
	JOINT Pelvis
	{
		OFFSET 0.000000 0.000000 0.000000
		CHANNELS 3 Xrotation Yrotation Zrotation
		JOINT LeftUpLeg
		{
			OFFSET 8.479700 -4.795502 -0.379100
			CHANNELS 3 Xrotation Yrotation Zrotation
			JOINT LeftLeg
			{
				OFFSET 0.024144 -32.555107 0.112900
				CHANNELS 3 Xrotation Yrotation Zrotation
				JOINT LeftFoot
				{
					OFFSET -0.024144 -32.638630 -3.012600
					CHANNELS 3 Xrotation Yrotation Zrotation
					JOINT LeftToeBase
					{
						OFFSET 0.970200 -13.225400 11.864200
						CHANNELS 3 Xrotation Yrotation Zrotation
						End Site
						{
							OFFSET 0.000000 12.319262 0.000000
						}
					}
					JOINT LFootTongue
					{
						OFFSET 1.142400 -1.059800 6.665200
						CHANNELS 3 Xrotation Yrotation Zrotation
						End Site
						{
							OFFSET 0.000000 12.319262 0.000000
						}
					}
				}
				JOINT LeftPantLeg
				{
					OFFSET 0.918482 -16.533964 -2.284700
					CHANNELS 3 Xrotation Yrotation Zrotation
					End Site
					{
						OFFSET 0.350399 24.744368 0.000000
					}
				}
			}
		}
		JOINT RightUpLeg
		{
			OFFSET -8.479700 -4.795502 -0.379100
			CHANNELS 3 Xrotation Yrotation Zrotation
			JOINT RightLeg
			{
				OFFSET -0.023144 -32.555092 0.112900
				CHANNELS 3 Xrotation Yrotation Zrotation
				JOINT RightFoot
				{
					OFFSET 0.023144 -32.638641 -3.012700
					CHANNELS 3 Xrotation Yrotation Zrotation
					JOINT RightToeBase
					{
						OFFSET -0.970200 -13.225400 11.864200
						CHANNELS 3 Xrotation Yrotation Zrotation
						End Site
						{
							OFFSET 0.000000 12.319244 0.000000
						}
					}
					JOINT RFootTongue
					{
						OFFSET -1.142200 -1.059800 6.665200
						CHANNELS 3 Xrotation Yrotation Zrotation
						End Site
						{
							OFFSET 0.000000 12.319243 0.000000
						}
					}
				}
				JOINT RightPantLeg
				{
					OFFSET -0.919482 -16.533978 -2.284800
					CHANNELS 3 Xrotation Yrotation Zrotation
					End Site
					{
						OFFSET -0.350400 24.744419 0.000000
					}
				}
			}
		}
	}
	JOINT Spine
	{
		OFFSET 0.000000 7.722000 1.166200
		CHANNELS 3 Xrotation Yrotation Zrotation
		JOINT Spine1
		{
			OFFSET 0.000000 12.024101 0.248800
			CHANNELS 3 Xrotation Yrotation Zrotation
			JOINT Spine2
			{
				OFFSET 0.000000 11.502998 -0.491200
				CHANNELS 3 Xrotation Yrotation Zrotation
				JOINT Neck
				{
					OFFSET 0.000000 18.430702 -3.123100
					CHANNELS 3 Xrotation Yrotation Zrotation
					JOINT Head
					{
						OFFSET 0.000000 9.051102 1.034000
						CHANNELS 3 Xrotation Yrotation Zrotation
						JOINT HairB
						{
							OFFSET 0.208400 24.786102 24.822300
							CHANNELS 3 Xrotation Yrotation Zrotation
							End Site
							{
								OFFSET 0.000000 32.263779 0.000000
							}
						}
						JOINT HairA
						{
							OFFSET -7.081100 24.428299 23.196600
							CHANNELS 3 Xrotation Yrotation Zrotation
							End Site
							{
								OFFSET 0.000000 32.263779 0.000000
							}
						}
						JOINT Hat
						{
							OFFSET 16.728800 15.048294 -15.439601
							CHANNELS 3 Xrotation Yrotation Zrotation
							End Site
							{
								OFFSET 0.000000 32.263779 0.000000
							}
						}
					}
				}
				JOINT LeftShoulder
				{
					OFFSET 6.197800 13.665199 -4.064700
					CHANNELS 3 Xrotation Yrotation Zrotation
					JOINT LeftArm
					{
						OFFSET 7.778100 -0.187103 -1.709300
						CHANNELS 3 Xrotation Yrotation Zrotation
						JOINT LeftForeArm
						{
							OFFSET 22.049376 0.000000 0.000000
							CHANNELS 3 Xrotation Yrotation Zrotation
							JOINT LeftHand
							{
								OFFSET 23.009392 0.000000 0.000000
								CHANNELS 3 Xrotation Yrotation Zrotation
								JOINT LeftHandThumb1
								{
									OFFSET 3.507191 -2.063065 3.133727
									CHANNELS 3 Xrotation Yrotation Zrotation
									JOINT LeftHandThumb2
									{
										OFFSET 3.101337 -1.790558 1.790558
										CHANNELS 3 Xrotation Yrotation Zrotation
										JOINT LeftHandThumb3
										{
											OFFSET 3.058640 -1.765907 1.765906
											CHANNELS 3 Xrotation Yrotation Zrotation
											End Site
											{
												OFFSET -0.415260 3.926476 -0.049563
											}
										}
									}
								}
								JOINT LeftHandIndex1
								{
									OFFSET 11.334419 -0.901459 3.706815
									CHANNELS 3 Xrotation Yrotation Zrotation
									JOINT LeftHandIndex2
									{
										OFFSET 3.283112 0.000000 0.000000
										CHANNELS 3 Xrotation Yrotation Zrotation
										JOINT LeftHandIndex3
										{
											OFFSET 3.323853 0.000000 0.000000
											CHANNELS 3 Xrotation Yrotation Zrotation
											End Site
											{
												OFFSET -1.135597 3.097809 0.402452
											}
										}
									}
								}
								JOINT LeftHandMiddle1
								{
									OFFSET 11.335861 0.000000 0.000000
									CHANNELS 3 Xrotation Yrotation Zrotation
									JOINT LeftHandMiddle2
									{
										OFFSET 3.410492 0.000000 0.000000
										CHANNELS 3 Xrotation Yrotation Zrotation
										JOINT LeftHandMiddle3
										{
											OFFSET 3.312172 0.000000 0.000000
											CHANNELS 3 Xrotation Yrotation Zrotation
											End Site
											{
												OFFSET -1.150200 3.080154 0.400270
											}
										}
									}
								}
								JOINT LeftHandRing1
								{
									OFFSET 11.514786 -0.013176 -3.003090
									CHANNELS 3 Xrotation Yrotation Zrotation
									JOINT LeftHandRing2
									{
										OFFSET 3.053307 0.000000 0.000000
										CHANNELS 3 Xrotation Yrotation Zrotation
										JOINT LeftHandRing3
										{
											OFFSET 3.295807 0.000000 0.000000
											CHANNELS 3 Xrotation Yrotation Zrotation
											End Site
											{
												OFFSET -1.281006 3.013344 0.375733
											}
										}
									}
								}
								JOINT LeftHandPinky1
								{
									OFFSET 10.518692 -0.960396 -5.730441
									CHANNELS 3 Xrotation Yrotation Zrotation
									JOINT LeftHandPinky2
									{
										OFFSET 2.861649 0.000000 0.000000
										CHANNELS 3 Xrotation Yrotation Zrotation
										JOINT LeftHandPinky3
										{
											OFFSET 2.863380 0.000000 0.000000
											CHANNELS 3 Xrotation Yrotation Zrotation
											End Site
											{
												OFFSET -0.843597 2.711159 0.369971
											}
										}
									}
								}
							}
							JOINT LSleeve
							{
								OFFSET 6.676277 -0.344902 -1.011730
								CHANNELS 3 Xrotation Yrotation Zrotation
								End Site
								{
									OFFSET 0.000000 14.885353 0.000000
								}
							}
						}
					}
				}
				JOINT RightShoulder
				{
					OFFSET -6.197800 13.665199 -4.064700
					CHANNELS 3 Xrotation Yrotation Zrotation
					JOINT RightArm
					{
						OFFSET -7.778100 -0.187103 -1.709300
						CHANNELS 3 Xrotation Yrotation Zrotation
						JOINT RightForeArm
						{
							OFFSET -22.049376 0.000000 0.000000
							CHANNELS 3 Xrotation Yrotation Zrotation
							JOINT RightHand
							{
								OFFSET -23.009392 0.000000 0.000000
								CHANNELS 3 Xrotation Yrotation Zrotation
								JOINT RightHandThumb1
								{
									OFFSET -3.507191 -2.063065 3.133727
									CHANNELS 3 Xrotation Yrotation Zrotation
									JOINT RightHandThumb2
									{
										OFFSET -3.101337 -1.790558 1.790558
										CHANNELS 3 Xrotation Yrotation Zrotation
										JOINT RightHandThumb3
										{
											OFFSET -3.058640 -1.765907 1.765906
											CHANNELS 3 Xrotation Yrotation Zrotation
											End Site
											{
												OFFSET 0.415260 3.926476 -0.049563
											}
										}
									}
								}
								JOINT RightHandIndex1
								{
									OFFSET -11.334419 -0.901459 3.706815
									CHANNELS 3 Xrotation Yrotation Zrotation
									JOINT RightHandIndex2
									{
										OFFSET -3.283112 0.000000 0.000000
										CHANNELS 3 Xrotation Yrotation Zrotation
										JOINT RightHandIndex3
										{
											OFFSET -3.323853 0.000000 0.000000
											CHANNELS 3 Xrotation Yrotation Zrotation
											End Site
											{
												OFFSET 1.135597 3.097809 0.402452
											}
										}
									}
								}
								JOINT RightHandMiddle1
								{
									OFFSET -11.335861 0.000000 0.000000
									CHANNELS 3 Xrotation Yrotation Zrotation
									JOINT RightHandMiddle2
									{
										OFFSET -3.410492 0.000000 0.000000
										CHANNELS 3 Xrotation Yrotation Zrotation
										JOINT RightHandMiddle3
										{
											OFFSET -3.312172 0.000000 0.000000
											CHANNELS 3 Xrotation Yrotation Zrotation
											End Site
											{
												OFFSET 1.150200 3.080154 0.400270
											}
										}
									}
								}
								JOINT RightHandRing1
								{
									OFFSET -11.514786 -0.013176 -3.003090
									CHANNELS 3 Xrotation Yrotation Zrotation
									JOINT RightHandRing2
									{
										OFFSET -3.053307 0.000000 0.000000
										CHANNELS 3 Xrotation Yrotation Zrotation
										JOINT RightHandRing3
										{
											OFFSET -3.295807 0.000000 0.000000
											CHANNELS 3 Xrotation Yrotation Zrotation
											End Site
											{
												OFFSET 1.281006 3.013344 0.375733
											}
										}
									}
								}
								JOINT RightHandPinky1
								{
									OFFSET -10.518692 -0.960396 -5.730441
									CHANNELS 3 Xrotation Yrotation Zrotation
									JOINT RightHandPinky2
									{
										OFFSET -2.861649 0.000000 0.000000
										CHANNELS 3 Xrotation Yrotation Zrotation
										JOINT RightHandPinky3
										{
											OFFSET -2.863380 0.000000 0.000000
											CHANNELS 3 Xrotation Yrotation Zrotation
											End Site
											{
												OFFSET 0.843597 2.711159 0.369971
											}
										}
									}
								}
							}
							JOINT RSleeve
							{
								OFFSET -6.676277 -0.344902 -1.011730
								CHANNELS 3 Xrotation Yrotation Zrotation
								End Site
								{
									OFFSET 0.000000 14.885353 0.000000
								}
							}
						}
					}
				}
				JOINT Backpack
				{
					OFFSET 0.000000 -2.471497 36.677502
					CHANNELS 3 Xrotation Yrotation Zrotation
					End Site
					{
						OFFSET 0.000000 20.427315 0.000000
					}
				}
				JOINT Hood
				{
					OFFSET 0.000000 18.754097 -10.431000
					CHANNELS 3 Xrotation Yrotation Zrotation
					JOINT Hood1
					{
						OFFSET 0.000000 -5.011002 -7.685901
						CHANNELS 3 Xrotation Yrotation Zrotation
						End Site
						{
							OFFSET 0.000000 9.175140 0.000000
						}
					}
				}
				JOINT LHoodieString
				{
					OFFSET 5.250500 16.397697 3.089900
					CHANNELS 3 Xrotation Yrotation Zrotation
					JOINT LHoodieString1
					{
						OFFSET 0.257700 -6.364304 3.694600
						CHANNELS 3 Xrotation Yrotation Zrotation
						JOINT LHoodieString2
						{
							OFFSET 0.000000 -9.643799 2.679100
							CHANNELS 3 Xrotation Yrotation Zrotation
							End Site
							{
								OFFSET 0.000000 10.009018 0.000000
							}
						}
					}
				}
				JOINT RHoodieString
				{
					OFFSET -5.250500 16.397697 3.089900
					CHANNELS 3 Xrotation Yrotation Zrotation
					JOINT RHoodieString1
					{
						OFFSET -0.257700 -6.364304 3.694600
						CHANNELS 3 Xrotation Yrotation Zrotation
						JOINT RHoodieString2
						{
							OFFSET 0.000000 -9.643799 2.679100
							CHANNELS 3 Xrotation Yrotation Zrotation
							End Site
							{
								OFFSET 0.000000 10.009018 0.000000
							}
						}
					}
				}
			}
			JOINT LBackpack_Strap
			{
				OFFSET 15.223200 -7.719803 -6.610900
				CHANNELS 3 Xrotation Yrotation Zrotation
				End Site
				{
					OFFSET 0.000000 16.040596 0.000000
				}
			}
			JOINT RBackpack_Strap
			{
				OFFSET -15.223000 -7.719803 -6.610900
				CHANNELS 3 Xrotation Yrotation Zrotation
				End Site
				{
					OFFSET 0.000000 16.040596 0.000000
				}
			}
		}
	}
	JOINT BoyFacialAnim_Joint
	{
		OFFSET 1.000000 -82.208099 -1.550900
		CHANNELS 3 Xrotation Yrotation Zrotation
		End Site
		{
			OFFSET 0.000000 30.012791 0.000000
		}
	}
}
MOTION
Frames: 4
Frame Time: 0.016667
2.350366 64.377365 -39.067661 16.370058 -76.647283 15.137157 -0.000000 -0.000001 0.000000 -46.485274 -6.785220 23.853331 75.224965 15.056102 1.188180 -19.963311 5.448241 -28.702176 0.000000 -0.000001 0.000000 0.000000 -0.000001 0.000000 -0.000001 -0.000003 0.000002 -51.941833 -3.120827 -15.225444 81.884747 19.823051 -5.202795 -33.684509 -0.568994 1.921246 -0.000000 -0.000000 -0.000000 -0.000000 -0.000000 -0.000000 -0.000002 -0.000001 -0.000000 4.431348 9.329555 -2.957095 9.594761 18.344811 -7.012216 9.594763 18.344785 -7.012210 2.735903 2.537201 0.917081 2.210337 -0.400990 -2.541336 -0.000000 -0.000002 0.000001 -0.000000 -0.000002 0.000001 -0.000000 -0.000002 0.000001 4.442668 -4.896765 0.391712 -74.044851 -32.200879 -59.779564 45.630014 -71.166391 44.297383 30.811560 -13.945425 5.324254 -19.313931 7.326445 -0.325098 17.757250 27.151349 -7.102075 -0.000003 -0.000000 -0.000003 8.737630 0.556789 -27.858982 -3.246445 1.052139 -21.338366 -0.000001 0.000001 0.000000 -3.793158 6.626412 -20.382890 -1.406093 -1.003765 -21.514840 -0.000001 -0.000001 -0.000000 -8.139608 9.456998 -29.778921 1.966555 -4.844272 -27.350977 -0.000001 0.000000 -0.000002 -7.314750 11.108287 -42.805823 1.162392 -7.791595 -40.565214 -0.000001 0.000000 0.000003 -0.000002 -0.000001 0.000001 3.889433 8.333832 -7.261185 -42.000240 -3.203189 27.938520 -12.789910 47.794932 2.424368 36.354194 22.263302 -26.066807 -9.151840 -3.932281 17.229571 -8.906338 -3.563916 -6.479050 -0.000002 0.000003 -0.000002 -2.009639 8.213991 -5.048300 -1.625963 -0.980979 33.676524 0.000001 -0.000001 0.000002 -3.382751 -5.223053 -15.049903 -1.435138 -1.099669 25.006603 -0.000000 0.000003 0.000000 -8.188908 -12.219969 -0.270453 2.472536 4.601790 34.000426 0.000000 -0.000003 -0.000000 -14.081772 -14.805130 6.122708 3.294867 9.546741 30.562313 -0.000000 -0.000002 -0.000000 -0.000000 -0.000001 -0.000000 -0.000002 -0.000001 0.000001 -0.000002 -0.000001 0.000001 -0.000002 -0.000001 0.000001 -0.000002 -0.000001 0.000001 -0.000002 -0.000001 0.000001 -0.000002 0.000001 -0.000000 -0.000002 -0.000001 0.000001 -0.000002 -0.000001 0.000001 -0.000002 0.000001 -0.000000 0.000001 0.000000 -0.000000 0.000001 0.000000 -0.000000 -0.000000 -0.000001 0.000000 
2.664611 63.825417 -39.498825 23.721474 -75.380536 21.895199 -0.000000 0.000000 0.000000 -50.111182 -7.508256 24.691045 76.214420 13.834560 0.959213 -19.745085 5.114958 -28.225502 -0.000000 -0.000000 -0.000000 -0.000000 -0.000000 -0.000000 -0.000001 0.000002 0.000001 -54.942076 -2.845571 -14.719524 82.965037 18.871321 -4.705772 -33.897464 -0.572951 1.975867 0.000000 -0.000001 0.000000 0.000000 -0.000001 0.000000 0.000000 -0.000001 0.000001 4.534588 9.181136 -3.014889 9.805975 18.007210 -7.165120 9.805978 18.007222 -7.165120 1.927735 4.490860 1.287777 1.537590 -0.532067 -4.732038 -0.000001 -0.000001 -0.000001 -0.000001 -0.000001 -0.000001 -0.000001 -0.000001 -0.000001 4.342697 -4.985463 -0.341772 -66.423275 -29.193219 -56.580515 44.445424 -70.007390 43.935776 31.304461 -11.014998 4.016405 -19.044914 6.177786 0.481997 19.312389 28.165041 -8.456578 0.000001 0.000004 0.000001 9.294375 -0.270984 -31.038463 -3.248159 0.907469 -22.504485 -0.000001 -0.000001 -0.000005 -3.842871 6.742088 -20.716329 -1.447311 -1.155393 -22.951732 0.000000 0.000000 0.000000 -8.079858 9.523694 -29.657952 1.892683 -4.850345 -27.940878 0.000001 0.000002 -0.000000 -7.803372 10.746634 -42.756574 1.095361 -7.784614 -41.809220 -0.000001 -0.000000 0.000001 0.000001 0.000000 0.000000 3.540732 8.113212 -5.624217 -39.216081 -4.972972 28.094475 -12.221764 46.311480 3.788312 34.197678 22.070037 -22.498759 -9.063458 -3.936837 17.210062 -8.695218 -3.775183 -6.551193 -0.000001 -0.000002 -0.000002 -2.062660 8.026979 -3.931495 -1.632743 -0.857253 34.503076 0.000000 0.000000 0.000002 -3.225500 -5.131272 -13.367333 -1.402181 -0.904892 26.301238 0.000000 -0.000001 -0.000000 -7.680270 -12.230761 1.506797 2.246287 4.705183 35.492614 -0.000000 0.000003 0.000001 -13.333118 -14.852467 8.352895 3.002299 9.636736 32.213904 -0.000001 -0.000000 0.000000 -0.000004 -0.000000 -0.000000 -0.000000 0.000001 -0.000001 -0.000000 0.000001 -0.000001 -0.000000 0.000001 -0.000001 -0.000000 0.000001 -0.000001 -0.000000 0.000001 -0.000002 -0.000000 0.000001 -0.000001 -0.000000 0.000001 -0.000001 -0.000000 0.000001 -0.000002 -0.000000 0.000001 -0.000001 0.000001 0.000003 -0.000002 0.000001 0.000003 -0.000002 -0.000000 0.000000 0.000000 
3.008237 63.396347 -39.872021 29.730413 -73.864152 27.486201 -0.000001 -0.000000 -0.000000 -53.603673 -8.103721 25.123999 76.847435 12.791451 0.709834 -19.304184 4.771726 -27.662314 0.000000 0.000000 -0.000000 0.000000 0.000000 -0.000000 -0.000003 0.000001 -0.000001 -57.813446 -2.423758 -14.341317 83.762284 17.833436 -4.321653 -33.957399 -0.705847 2.255132 0.000000 0.000001 -0.000000 0.000000 0.000001 -0.000000 -0.000000 -0.000001 0.000001 4.639949 9.037462 -3.068765 10.016244 17.679738 -7.291492 10.016239 17.679750 -7.291500 1.141876 6.463884 1.637530 0.937894 -0.640676 -6.991575 0.000001 0.000002 -0.000001 0.000001 0.000002 -0.000001 0.000001 0.000002 -0.000001 4.231858 -4.936949 -0.833284 -58.521402 -25.699422 -53.642660 41.104577 -69.046464 41.375862 30.954185 -7.949362 3.669313 -18.695742 5.341779 1.222988 19.851272 28.173178 -9.184999 -0.000000 -0.000002 -0.000000 9.121589 -1.933218 -33.603325 -3.251638 0.762736 -23.660873 -0.000001 0.000001 0.000000 -3.890828 6.785517 -21.931751 -1.491384 -1.304145 -24.365633 0.000000 -0.000001 0.000002 -7.771790 10.307840 -30.766457 1.809493 -4.872204 -28.906870 -0.000002 0.000004 -0.000005 -7.772672 11.953584 -44.457746 1.028323 -7.779512 -43.355319 -0.000006 -0.000000 0.000001 -0.000004 0.000002 0.000000 3.219522 7.942041 -3.888787 -35.652361 -7.358676 27.766292 -11.633920 45.311441 5.140171 31.216881 21.636467 -18.441000 -8.993643 -3.944176 17.135312 -8.463731 -3.999600 -6.613709 -0.000002 -0.000000 -0.000000 -2.142774 7.757679 -2.456751 -1.629381 -0.726817 35.289607 0.000001 0.000001 0.000004 -3.043236 -5.002353 -11.157962 -1.372900 -0.672065 27.878645 -0.000000 -0.000000 0.000002 -7.078820 -12.195041 3.756909 1.980152 4.816507 37.201066 -0.000001 -0.000001 0.000002 -12.440629 -14.869030 10.893924 2.656912 9.731684 34.190038 0.000001 0.000000 0.000002 0.000001 -0.000000 -0.000002 0.000000 0.000000 0.000001 0.000000 0.000000 0.000001 0.000000 0.000000 0.000001 0.000000 0.000000 0.000001 0.000000 0.000000 -0.000000 -0.000002 0.000000 -0.000000 0.000000 0.000000 0.000001 0.000000 0.000000 -0.000000 -0.000002 0.000000 -0.000000 -0.000000 0.000004 -0.000001 -0.000000 0.000004 -0.000001 -0.000001 -0.000000 -0.000000 
3.361741 63.093491 -40.187279 34.306609 -72.222127 31.847984 0.000000 -0.000002 0.000000 -56.809559 -8.493780 25.126794 77.128156 11.977567 0.504397 -18.732241 4.466146 -27.031930 -0.000000 0.000002 -0.000000 -0.000000 0.000002 0.000000 0.000000 0.000000 -0.000001 -60.427134 -1.835487 -14.093988 84.293940 16.719659 -4.048201 -33.895879 -0.907959 2.736920 0.000000 0.000000 -0.000000 0.000000 0.000000 -0.000000 0.000002 0.000001 0.000001 4.754297 8.896938 -3.112285 10.238197 17.364533 -7.376339 10.238197 17.364533 -7.376338 0.368221 8.396670 1.955979 0.410716 -0.716198 -9.243254 0.000000 0.000000 0.000001 0.000000 0.000000 0.000001 0.000000 0.000000 0.000001 4.107730 -4.811336 -1.179666 -50.713034 -21.636935 -51.563185 36.144535 -68.037618 36.990235 29.863718 -5.250581 4.082326 -18.282726 4.747864 1.912507 19.476288 27.304081 -9.321531 0.000001 0.000002 0.000000 8.191139 -4.289866 -35.718116 -3.258101 0.613769 -24.845301 -0.000002 0.000000 -0.000005 -3.936835 6.766883 -23.953755 -1.539535 -1.453382 -25.791182 -0.000000 -0.000004 0.000001 -7.141137 11.712636 -33.013053 1.716915 -4.907854 -30.228727 -0.000004 -0.000002 -0.000001 -7.043595 14.522703 -47.782600 0.961476 -7.775741 -45.186117 -0.000002 0.000001 -0.000002 -0.000002 -0.000002 -0.000003 2.932176 7.881683 -2.048413 -31.285839 -10.550646 27.298306 -11.071068 45.033346 6.402679 27.469774 20.872020 -13.854836 -8.937092 -3.951752 17.012514 -8.206379 -4.247606 -6.666314 0.000000 0.000003 0.000002 -2.237310 7.418802 -0.626211 -1.620784 -0.585861 36.089637 -0.000001 0.000002 -0.000001 -2.842431 -4.831143 -8.446976 -1.353449 -0.403320 29.723771 -0.000001 0.000000 -0.000000 -6.401972 -12.092160 6.441908 1.678102 4.929166 39.109158 -0.000001 -0.000002 -0.000002 -11.428138 -14.820822 13.730225 2.265926 9.821373 36.452467 -0.000001 -0.000003 -0.000000 0.000002 -0.000001 0.000000 -0.000000 -0.000001 0.000002 -0.000000 -0.000001 0.000002 -0.000000 -0.000001 0.000002 -0.000000 -0.000001 0.000002 -0.000000 -0.000001 0.000001 -0.000000 0.000000 -0.000002 -0.000000 -0.000001 0.000002 -0.000000 -0.000001 0.000001 -0.000000 0.000000 -0.000002 -0.000000 0.000001 0.000001 -0.000000 0.000001 0.000001 0.000000 -0.000002 0.000000 
